<mxfile host="app.diagrams.net" modified="2023-10-04T02:02:50.486Z" agent="Mozilla/5.0 (Windows NT 10.0; Win64; x64) AppleWebKit/537.36 (KHTML, like Gecko) Chrome/117.0.0.0 Safari/537.36" etag="atjxwJ9wo3NKaol6leoO" version="22.0.2" type="github">
  <diagram name="Halaman-1" id="ChoLSpmd_kLpOwcWuZYP">
    <mxGraphModel dx="794" dy="456" grid="1" gridSize="10" guides="1" tooltips="1" connect="1" arrows="1" fold="1" page="1" pageScale="1" pageWidth="827" pageHeight="1169" math="0" shadow="0">
      <root>
        <mxCell id="0" />
        <mxCell id="1" parent="0" />
        <mxCell id="vslQCKUG1_OjIIJHrupb-44" style="edgeStyle=none;rounded=0;orthogonalLoop=1;jettySize=auto;html=1;entryX=0.5;entryY=0;entryDx=0;entryDy=0;" edge="1" parent="1" source="vslQCKUG1_OjIIJHrupb-2" target="vslQCKUG1_OjIIJHrupb-5">
          <mxGeometry relative="1" as="geometry" />
        </mxCell>
        <mxCell id="vslQCKUG1_OjIIJHrupb-2" value="mulai" style="strokeWidth=2;html=1;shape=mxgraph.flowchart.terminator;whiteSpace=wrap;" vertex="1" parent="1">
          <mxGeometry x="350" y="200" width="100" height="60" as="geometry" />
        </mxCell>
        <mxCell id="vslQCKUG1_OjIIJHrupb-22" style="edgeStyle=none;rounded=0;orthogonalLoop=1;jettySize=auto;html=1;entryX=0.5;entryY=0;entryDx=0;entryDy=0;" edge="1" parent="1" source="vslQCKUG1_OjIIJHrupb-5" target="vslQCKUG1_OjIIJHrupb-15">
          <mxGeometry relative="1" as="geometry" />
        </mxCell>
        <mxCell id="vslQCKUG1_OjIIJHrupb-5" value="input angka" style="shape=parallelogram;perimeter=parallelogramPerimeter;whiteSpace=wrap;html=1;fixedSize=1;" vertex="1" parent="1">
          <mxGeometry x="320" y="340" width="160" height="50" as="geometry" />
        </mxCell>
        <mxCell id="vslQCKUG1_OjIIJHrupb-23" style="edgeStyle=none;rounded=0;orthogonalLoop=1;jettySize=auto;html=1;entryX=0.5;entryY=0;entryDx=0;entryDy=0;" edge="1" parent="1" source="vslQCKUG1_OjIIJHrupb-15" target="vslQCKUG1_OjIIJHrupb-18">
          <mxGeometry relative="1" as="geometry" />
        </mxCell>
        <mxCell id="vslQCKUG1_OjIIJHrupb-15" value="tebakan" style="rounded=0;whiteSpace=wrap;html=1;" vertex="1" parent="1">
          <mxGeometry x="340" y="470" width="120" height="50" as="geometry" />
        </mxCell>
        <mxCell id="vslQCKUG1_OjIIJHrupb-25" style="edgeStyle=none;rounded=0;orthogonalLoop=1;jettySize=auto;html=1;entryX=0.5;entryY=0;entryDx=0;entryDy=0;" edge="1" parent="1" source="vslQCKUG1_OjIIJHrupb-18" target="vslQCKUG1_OjIIJHrupb-19">
          <mxGeometry relative="1" as="geometry" />
        </mxCell>
        <mxCell id="vslQCKUG1_OjIIJHrupb-18" value="proses menebak" style="rounded=0;whiteSpace=wrap;html=1;" vertex="1" parent="1">
          <mxGeometry x="340" y="560" width="120" height="60" as="geometry" />
        </mxCell>
        <mxCell id="vslQCKUG1_OjIIJHrupb-26" style="edgeStyle=none;rounded=0;orthogonalLoop=1;jettySize=auto;html=1;exitX=0;exitY=0.5;exitDx=0;exitDy=0;entryX=1;entryY=0.5;entryDx=0;entryDy=0;" edge="1" parent="1" source="vslQCKUG1_OjIIJHrupb-19" target="vslQCKUG1_OjIIJHrupb-20">
          <mxGeometry relative="1" as="geometry" />
        </mxCell>
        <mxCell id="vslQCKUG1_OjIIJHrupb-27" value="yes" style="edgeLabel;html=1;align=center;verticalAlign=middle;resizable=0;points=[];" vertex="1" connectable="0" parent="vslQCKUG1_OjIIJHrupb-26">
          <mxGeometry x="-0.2" relative="1" as="geometry">
            <mxPoint as="offset" />
          </mxGeometry>
        </mxCell>
        <mxCell id="vslQCKUG1_OjIIJHrupb-33" style="edgeStyle=none;rounded=0;orthogonalLoop=1;jettySize=auto;html=1;exitX=0.5;exitY=1;exitDx=0;exitDy=0;" edge="1" parent="1" source="vslQCKUG1_OjIIJHrupb-19" target="vslQCKUG1_OjIIJHrupb-32">
          <mxGeometry relative="1" as="geometry" />
        </mxCell>
        <mxCell id="vslQCKUG1_OjIIJHrupb-34" value="No" style="edgeLabel;html=1;align=center;verticalAlign=middle;resizable=0;points=[];" vertex="1" connectable="0" parent="vslQCKUG1_OjIIJHrupb-33">
          <mxGeometry x="0.0256" y="-1" relative="1" as="geometry">
            <mxPoint as="offset" />
          </mxGeometry>
        </mxCell>
        <mxCell id="vslQCKUG1_OjIIJHrupb-19" value="angka= tebakan" style="rhombus;whiteSpace=wrap;html=1;" vertex="1" parent="1">
          <mxGeometry x="350" y="660" width="100" height="90" as="geometry" />
        </mxCell>
        <mxCell id="vslQCKUG1_OjIIJHrupb-31" style="edgeStyle=none;rounded=0;orthogonalLoop=1;jettySize=auto;html=1;exitX=0;exitY=0.5;exitDx=0;exitDy=0;entryX=0.5;entryY=0;entryDx=0;entryDy=0;" edge="1" parent="1" source="vslQCKUG1_OjIIJHrupb-20" target="vslQCKUG1_OjIIJHrupb-28">
          <mxGeometry relative="1" as="geometry">
            <Array as="points">
              <mxPoint x="90" y="705" />
            </Array>
          </mxGeometry>
        </mxCell>
        <mxCell id="vslQCKUG1_OjIIJHrupb-20" value="Benar" style="shape=parallelogram;perimeter=parallelogramPerimeter;whiteSpace=wrap;html=1;fixedSize=1;" vertex="1" parent="1">
          <mxGeometry x="180" y="680" width="110" height="50" as="geometry" />
        </mxCell>
        <mxCell id="vslQCKUG1_OjIIJHrupb-28" value="End" style="ellipse;whiteSpace=wrap;html=1;" vertex="1" parent="1">
          <mxGeometry x="40" y="830" width="100" height="70" as="geometry" />
        </mxCell>
        <mxCell id="vslQCKUG1_OjIIJHrupb-36" style="edgeStyle=none;rounded=0;orthogonalLoop=1;jettySize=auto;html=1;exitX=0.5;exitY=1;exitDx=0;exitDy=0;entryX=0.5;entryY=0;entryDx=0;entryDy=0;" edge="1" parent="1" source="vslQCKUG1_OjIIJHrupb-32" target="vslQCKUG1_OjIIJHrupb-35">
          <mxGeometry relative="1" as="geometry" />
        </mxCell>
        <mxCell id="vslQCKUG1_OjIIJHrupb-37" value="No" style="edgeLabel;html=1;align=center;verticalAlign=middle;resizable=0;points=[];" vertex="1" connectable="0" parent="vslQCKUG1_OjIIJHrupb-36">
          <mxGeometry x="-0.037" relative="1" as="geometry">
            <mxPoint as="offset" />
          </mxGeometry>
        </mxCell>
        <mxCell id="vslQCKUG1_OjIIJHrupb-32" value="angka&amp;lt;tebakan" style="rhombus;whiteSpace=wrap;html=1;" vertex="1" parent="1">
          <mxGeometry x="350" y="880" width="100" height="90" as="geometry" />
        </mxCell>
        <mxCell id="vslQCKUG1_OjIIJHrupb-42" style="edgeStyle=none;rounded=0;orthogonalLoop=1;jettySize=auto;html=1;exitX=1;exitY=0.5;exitDx=0;exitDy=0;entryX=0;entryY=0.5;entryDx=0;entryDy=0;" edge="1" parent="1" source="vslQCKUG1_OjIIJHrupb-35" target="vslQCKUG1_OjIIJHrupb-41">
          <mxGeometry relative="1" as="geometry" />
        </mxCell>
        <mxCell id="vslQCKUG1_OjIIJHrupb-43" value="Yes" style="edgeLabel;html=1;align=center;verticalAlign=middle;resizable=0;points=[];" vertex="1" connectable="0" parent="vslQCKUG1_OjIIJHrupb-42">
          <mxGeometry x="-0.05" y="3" relative="1" as="geometry">
            <mxPoint as="offset" />
          </mxGeometry>
        </mxCell>
        <mxCell id="vslQCKUG1_OjIIJHrupb-48" style="edgeStyle=none;rounded=0;orthogonalLoop=1;jettySize=auto;html=1;exitX=0;exitY=0.5;exitDx=0;exitDy=0;entryX=0.5;entryY=1;entryDx=0;entryDy=0;" edge="1" parent="1" source="vslQCKUG1_OjIIJHrupb-35" target="vslQCKUG1_OjIIJHrupb-20">
          <mxGeometry relative="1" as="geometry">
            <mxPoint x="220" y="750" as="targetPoint" />
            <Array as="points">
              <mxPoint x="235" y="1100" />
            </Array>
          </mxGeometry>
        </mxCell>
        <mxCell id="vslQCKUG1_OjIIJHrupb-35" value="angka&amp;gt;tebakan" style="rhombus;whiteSpace=wrap;html=1;" vertex="1" parent="1">
          <mxGeometry x="350" y="1060" width="100" height="90" as="geometry" />
        </mxCell>
        <mxCell id="vslQCKUG1_OjIIJHrupb-46" style="edgeStyle=none;rounded=0;orthogonalLoop=1;jettySize=auto;html=1;exitX=0.5;exitY=0;exitDx=0;exitDy=0;" edge="1" parent="1" source="vslQCKUG1_OjIIJHrupb-38">
          <mxGeometry relative="1" as="geometry">
            <mxPoint x="600" y="590" as="targetPoint" />
          </mxGeometry>
        </mxCell>
        <mxCell id="vslQCKUG1_OjIIJHrupb-38" value="angka saya lebih kecil" style="shape=parallelogram;perimeter=parallelogramPerimeter;whiteSpace=wrap;html=1;fixedSize=1;" vertex="1" parent="1">
          <mxGeometry x="530" y="900" width="140" height="50" as="geometry" />
        </mxCell>
        <mxCell id="vslQCKUG1_OjIIJHrupb-39" style="edgeStyle=none;rounded=0;orthogonalLoop=1;jettySize=auto;html=1;exitX=1;exitY=0.5;exitDx=0;exitDy=0;entryX=0.029;entryY=0.52;entryDx=0;entryDy=0;entryPerimeter=0;" edge="1" parent="1" source="vslQCKUG1_OjIIJHrupb-32" target="vslQCKUG1_OjIIJHrupb-38">
          <mxGeometry relative="1" as="geometry" />
        </mxCell>
        <mxCell id="vslQCKUG1_OjIIJHrupb-40" value="Yes" style="edgeLabel;html=1;align=center;verticalAlign=middle;resizable=0;points=[];" vertex="1" connectable="0" parent="vslQCKUG1_OjIIJHrupb-39">
          <mxGeometry x="0.0232" relative="1" as="geometry">
            <mxPoint as="offset" />
          </mxGeometry>
        </mxCell>
        <mxCell id="vslQCKUG1_OjIIJHrupb-45" style="edgeStyle=none;rounded=0;orthogonalLoop=1;jettySize=auto;html=1;exitX=1;exitY=0.75;exitDx=0;exitDy=0;entryX=1;entryY=0.5;entryDx=0;entryDy=0;" edge="1" parent="1" source="vslQCKUG1_OjIIJHrupb-41" target="vslQCKUG1_OjIIJHrupb-18">
          <mxGeometry relative="1" as="geometry">
            <Array as="points">
              <mxPoint x="730" y="590" />
            </Array>
          </mxGeometry>
        </mxCell>
        <mxCell id="vslQCKUG1_OjIIJHrupb-41" value="angka saya lebih besar" style="shape=parallelogram;perimeter=parallelogramPerimeter;whiteSpace=wrap;html=1;fixedSize=1;" vertex="1" parent="1">
          <mxGeometry x="590" y="1082.5" width="150" height="45" as="geometry" />
        </mxCell>
      </root>
    </mxGraphModel>
  </diagram>
</mxfile>
